<?xml version="1.0" encoding="UTF-8"?>
<!DOCTYPE svg PUBLIC "-//W3C//DTD SVG 1.1//EN" "http://www.w3.org/Graphics/SVG/1.1/DTD/svg11.dtd">
<svg xmlns="http://www.w3.org/2000/svg" version="1.1" width="1024px" height="1024px" style="shape-rendering:geometricPrecision; text-rendering:geometricPrecision; image-rendering:optimizeQuality; fill-rule:evenodd; clip-rule:evenodd" xmlns:xlink="http://www.w3.org/1999/xlink">
<g><path style="opacity:1" fill="#fef8ee" d="M -0.5,-0.5 C 340.833,-0.5 682.167,-0.5 1023.5,-0.5C 1023.5,340.833 1023.5,682.167 1023.5,1023.5C 682.167,1023.5 340.833,1023.5 -0.5,1023.5C -0.5,682.167 -0.5,340.833 -0.5,-0.5 Z"/></g>
<g><path style="opacity:1" fill="#bf2020" d="M 222.5,322.5 C 292.16,323.056 339.993,355.39 366,419.5C 382.017,471.739 373.35,519.405 340,562.5C 296.53,608.079 244.363,622.245 183.5,605C 170.463,600.649 158.463,594.483 147.5,586.5C 159.849,573.985 172.015,561.318 184,548.5C 191.025,534.952 198.191,521.452 205.5,508C 208.167,506 210.833,506 213.5,508C 221.554,514.387 229.888,520.387 238.5,526C 240.227,527.389 241.561,529.056 242.5,531C 229.679,545.154 216.179,558.654 202,571.5C 199.63,583.138 204.464,588.638 216.5,588C 217.833,587.333 219.167,586.667 220.5,586C 238.387,568.113 256.221,550.279 274,532.5C 275.193,527.848 274.36,523.681 271.5,520C 254.733,508.199 238.233,496.033 222,483.5C 220.578,480.97 220.245,478.303 221,475.5C 224.333,468.833 227.667,462.167 231,455.5C 232.913,453.813 235.08,453.313 237.5,454C 248.5,461.667 259.5,469.333 270.5,477C 275.694,478.242 280.36,477.242 284.5,474C 299.387,459.113 314.221,444.279 329,429.5C 330.661,418.162 325.827,412.996 314.5,414C 302.229,424.268 290.563,435.268 279.5,447C 275.333,449.086 271.333,448.753 267.5,446C 253.116,434.615 238.45,423.615 223.5,413C 202.495,412.688 181.495,413.021 160.5,414C 157.898,414.883 155.731,416.383 154,418.5C 145.847,433.805 138.513,449.472 132,465.5C 132.16,475.681 137.327,479.847 147.5,478C 149.624,476.878 151.457,475.378 153,473.5C 159.054,461.224 165.221,449.058 171.5,437C 183.829,436.5 196.162,436.333 208.5,436.5C 193.179,471.479 177.013,506.146 160,540.5C 150.03,551.471 139.697,562.137 129,572.5C 95.834,538.678 81.5006,498.012 86,450.5C 93.8342,396.953 122.001,358.453 170.5,335C 187.206,327.655 204.54,323.489 222.5,322.5 Z"/></g>
<g><path style="opacity:1" fill="#fef7ee" d="M 248.5,356.5 C 271.118,356.942 280.951,368.275 278,390.5C 269.936,407.732 257.103,412.565 239.5,405C 227.41,396.051 224.243,384.551 230,370.5C 234.364,363.285 240.53,358.618 248.5,356.5 Z"/></g>
<g><path style="opacity:1" fill="#be2120" d="M 369.5,631.5 C 384.762,631.909 389.929,639.243 385,653.5C 378.892,660.268 372.059,661.101 364.5,656C 356.9,645.963 358.566,637.796 369.5,631.5 Z"/></g>
<g><path style="opacity:1" fill="#be2220" d="M 595.5,631.5 C 610.75,631.899 615.917,639.233 611,653.5C 603.3,661.413 595.633,661.413 588,653.5C 583.399,643.709 585.899,636.375 595.5,631.5 Z"/></g>
<g><path style="opacity:1" fill="#be2020" d="M 227.5,698.5 C 227.19,697.262 226.69,697.262 226,698.5C 225.178,700.788 224.511,703.122 224,705.5C 223.5,721.497 223.333,737.497 223.5,753.5C 216.5,753.5 209.5,753.5 202.5,753.5C 202.5,725.5 202.5,697.5 202.5,669.5C 208.833,669.5 215.167,669.5 221.5,669.5C 221.335,673.182 221.501,676.848 222,680.5C 222.383,679.944 222.883,679.611 223.5,679.5C 223.369,680.239 223.536,680.906 224,681.5C 231.197,670.487 241.363,665.82 254.5,667.5C 254.5,674.5 254.5,681.5 254.5,688.5C 249.156,688.334 243.823,688.501 238.5,689C 233.382,690.627 229.715,693.793 227.5,698.5 Z"/></g>
<g><path style="opacity:1" fill="#bf2121" d="M 425.5,702.5 C 425.565,702.062 425.399,701.728 425,701.5C 424.667,702.167 424.333,702.833 424,703.5C 423.5,720.497 423.333,737.497 423.5,754.5C 416.833,754.5 410.167,754.5 403.5,754.5C 403.5,726.5 403.5,698.5 403.5,670.5C 409.537,670.171 415.537,670.504 421.5,671.5C 422.213,673.776 422.713,676.109 423,678.5C 423.49,677.207 423.657,675.873 423.5,674.5C 424.302,675.952 424.802,677.618 425,679.5C 438.188,666.177 453.022,664.01 469.5,673C 476.104,679.04 479.937,686.54 481,695.5C 481.5,715.497 481.667,735.497 481.5,755.5C 473.5,755.5 465.5,755.5 457.5,755.5C 457.667,737.164 457.5,718.83 457,700.5C 454.148,689.82 447.315,685.986 436.5,689C 430.372,691.616 426.706,696.116 425.5,702.5 Z"/></g>
<g><path style="opacity:1" fill="#bf2523" d="M 572.5,690.5 C 572.41,711.309 572.41,732.309 572.5,753.5C 565.5,753.5 558.5,753.5 551.5,753.5C 551.667,735.497 551.5,717.497 551,699.5C 550.71,697.081 549.876,695.747 548.5,695.5C 543.573,688.778 536.906,686.612 528.5,689C 523.6,690.902 520.433,694.402 519,699.5C 518.5,718.164 518.333,736.83 518.5,755.5C 510.5,755.5 502.5,755.5 494.5,755.5C 494.333,726.831 494.5,698.165 495,669.5C 502.079,668.52 509.245,668.187 516.5,668.5C 516.457,671.91 516.957,675.243 518,678.5C 529.078,667.856 541.912,665.023 556.5,670C 565.032,674.362 570.365,681.196 572.5,690.5 Z"/></g>
<g><path style="opacity:1" fill="#be2020" d="M 706.5,699.5 C 705.503,717.659 705.17,735.992 705.5,754.5C 698.5,754.5 691.5,754.5 684.5,754.5C 684.667,736.497 684.5,718.497 684,700.5C 683.667,699.167 683.333,697.833 683,696.5C 682.31,695.262 681.81,695.262 681.5,696.5C 677.328,689.096 670.995,686.596 662.5,689C 656.984,690.684 653.318,694.184 651.5,699.5C 651.631,698.761 651.464,698.094 651,697.5C 650.667,698.5 650.333,699.5 650,700.5C 649.5,718.497 649.333,736.497 649.5,754.5C 642.833,754.5 636.167,754.5 629.5,754.5C 629.5,726.5 629.5,698.5 629.5,670.5C 635.5,670.5 641.5,670.5 647.5,670.5C 647.336,673.187 647.503,675.854 648,678.5C 648.495,676.527 648.662,674.527 648.5,672.5C 649.314,674.631 649.814,676.964 650,679.5C 661.159,668.086 674.325,664.919 689.5,670C 700.437,676.697 706.104,686.53 706.5,699.5 Z"/></g>
<g><path style="opacity:1" fill="#be201f" d="M 781.5,669.5 C 788.5,669.5 795.5,669.5 802.5,669.5C 802.5,696.833 802.5,724.167 802.5,751.5C 800.748,778.916 786.081,792.583 758.5,792.5C 745.413,792.748 733.746,788.915 723.5,781C 721.913,779.155 720.579,777.155 719.5,775C 723.321,769.846 727.821,765.346 733,761.5C 742.557,771.573 754.057,774.74 767.5,771C 776.827,765.509 780.66,757.342 779,746.5C 774.492,750.169 769.325,752.336 763.5,753C 738.416,756.547 722.916,746.047 717,721.5C 713.118,702.828 717.952,686.994 731.5,674C 748.387,664.606 764.553,665.773 780,677.5C 780.183,674.635 780.683,671.969 781.5,669.5 Z"/></g>
<g><path style="opacity:1" fill="#be2120" d="M 848.5,667.5 C 875.382,666.554 891.549,679.221 897,705.5C 897.499,709.821 897.666,714.154 897.5,718.5C 876.833,718.5 856.167,718.5 835.5,718.5C 837.909,733.221 846.575,739.387 861.5,737C 867.264,735.284 872.264,732.284 876.5,728C 884.475,726.323 890.475,728.989 894.5,736C 885.497,749.339 872.83,756.173 856.5,756.5C 825.358,753.849 810.858,736.849 813,705.5C 816.143,684.529 827.976,671.862 848.5,667.5 Z"/></g>
<g><path style="opacity:1" fill="#bd201f" d="M 297.5,667.5 C 309.382,666.284 320.716,668.118 331.5,673C 339.256,679.342 343.756,687.509 345,697.5C 345.5,716.83 345.667,736.164 345.5,755.5C 337.833,755.5 330.167,755.5 322.5,755.5C 323.005,752.159 323.172,748.826 323,745.5C 305.85,759.238 288.016,760.072 269.5,748C 261.683,739.031 260.516,729.197 266,718.5C 274.536,710.535 284.703,706.035 296.5,705C 304.792,703.816 313.125,703.316 321.5,703.5C 322.604,695.193 319.27,689.693 311.5,687C 300.694,684.824 291.694,687.824 284.5,696C 265.001,698.327 261.668,692.327 274.5,678C 281.475,672.843 289.142,669.343 297.5,667.5 Z"/></g>
<g><path style="opacity:1" fill="#be2020" d="M 932.5,702.5 C 931.659,701.991 931.159,702.657 931,704.5C 930.5,720.83 930.333,737.163 930.5,753.5C 923.5,753.5 916.5,753.5 909.5,753.5C 909.5,725.5 909.5,697.5 909.5,669.5C 916.167,669.5 922.833,669.5 929.5,669.5C 929.187,673.042 929.521,676.375 930.5,679.5C 931.5,679.167 932.167,678.5 932.5,677.5C 939.908,669.249 949.242,665.916 960.5,667.5C 960.5,674.5 960.5,681.5 960.5,688.5C 946.919,685.29 937.585,689.956 932.5,702.5 Z"/></g>
<g><path style="opacity:1" fill="#b5110d" d="M 159.5,755.5 C 151.167,755.5 142.833,755.5 134.5,755.5C 134.832,721.996 134.498,688.662 133.5,655.5C 121.167,655.5 108.833,655.5 96.5,655.5C 96.5,648.5 96.5,641.5 96.5,634.5C 130.167,634.5 163.833,634.5 197.5,634.5C 197.5,641.5 197.5,648.5 197.5,655.5C 184.833,655.5 172.167,655.5 159.5,655.5C 159.5,688.833 159.5,722.167 159.5,755.5 Z"/></g>
<g><path style="opacity:1" fill="#bf2121" d="M 98.5,636.5 C 130.833,636.5 163.167,636.5 195.5,636.5C 195.5,642.167 195.5,647.833 195.5,653.5C 183.253,653.178 171.086,653.512 159,654.5C 158.5,687.498 158.333,720.498 158.5,753.5C 150.876,754.398 143.209,754.731 135.5,754.5C 135.667,721.165 135.5,687.832 135,654.5C 122.914,653.512 110.747,653.178 98.5,653.5C 98.5,647.833 98.5,642.167 98.5,636.5 Z"/></g>
<g><path style="opacity:1" fill="#e49f93" d="M 930.5,668.5 C 931.167,671.5 931.833,674.5 932.5,677.5C 932.167,678.5 931.5,679.167 930.5,679.5C 930.5,675.833 930.5,672.167 930.5,668.5 Z"/></g>
<g><path style="opacity:1" fill="#b81e12" d="M 223.5,679.5 C 222.883,679.611 222.383,679.944 222,680.5C 221.501,676.848 221.335,673.182 221.5,669.5C 215.167,669.5 208.833,669.5 202.5,669.5C 202.5,697.5 202.5,725.5 202.5,753.5C 209.5,753.5 216.5,753.5 223.5,753.5C 223.333,737.497 223.5,721.497 224,705.5C 224.511,703.122 225.178,700.788 226,698.5C 226.69,697.262 227.19,697.262 227.5,698.5C 227.108,700.179 226.608,701.846 226,703.5C 225.5,720.83 225.333,738.163 225.5,755.5C 217.5,755.5 209.5,755.5 201.5,755.5C 201.5,726.5 201.5,697.5 201.5,668.5C 208.833,668.5 216.167,668.5 223.5,668.5C 223.5,672.167 223.5,675.833 223.5,679.5 Z"/></g>
<g><path style="opacity:1" fill="#fef7ee" d="M 753.5,687.5 C 770.221,686.227 779.221,693.894 780.5,710.5C 778.542,730.656 767.875,737.489 748.5,731C 739.608,722.473 737.108,712.306 741,700.5C 743.353,694.315 747.52,689.982 753.5,687.5 Z"/></g>
<g><path style="opacity:1" fill="#fef7ef" d="M 850.5,686.5 C 862.106,685.294 869.773,690.127 873.5,701C 860.833,701.667 848.167,701.667 835.5,701C 837.789,693.208 842.789,688.375 850.5,686.5 Z"/></g>
<g><path style="opacity:1" fill="#d7766a" d="M 588.5,668.5 C 588.5,697.167 588.5,725.833 588.5,754.5C 595.833,754.5 603.167,754.5 610.5,754.5C 610.5,754.833 610.5,755.167 610.5,755.5C 602.833,755.5 595.167,755.5 587.5,755.5C 587.169,726.329 587.502,697.329 588.5,668.5 Z"/></g>
<g><path style="opacity:1" fill="#b40a08" d="M 423.5,669.5 C 423.5,671.167 423.5,672.833 423.5,674.5C 423.657,675.873 423.49,677.207 423,678.5C 422.713,676.109 422.213,673.776 421.5,671.5C 415.537,670.504 409.537,670.171 403.5,670.5C 403.5,698.5 403.5,726.5 403.5,754.5C 410.167,754.5 416.833,754.5 423.5,754.5C 423.333,737.497 423.5,720.497 424,703.5C 424.333,702.833 424.667,702.167 425,701.5C 425.399,701.728 425.565,702.062 425.5,702.5C 425.5,720.167 425.5,737.833 425.5,755.5C 417.833,755.5 410.167,755.5 402.5,755.5C 402.5,726.833 402.5,698.167 402.5,669.5C 409.5,669.5 416.5,669.5 423.5,669.5 Z"/></g>
<g><path style="opacity:1" fill="#b40906" d="M 930.5,668.5 C 930.5,672.167 930.5,675.833 930.5,679.5C 929.521,676.375 929.187,673.042 929.5,669.5C 922.833,669.5 916.167,669.5 909.5,669.5C 909.5,697.5 909.5,725.5 909.5,753.5C 916.5,753.5 923.5,753.5 930.5,753.5C 930.333,737.163 930.5,720.83 931,704.5C 931.159,702.657 931.659,701.991 932.5,702.5C 931.555,720.139 931.222,737.806 931.5,755.5C 923.833,755.5 916.167,755.5 908.5,755.5C 908.5,726.5 908.5,697.5 908.5,668.5C 915.833,668.5 923.167,668.5 930.5,668.5 Z"/></g>
<g><path style="opacity:1" fill="#b6140d" d="M 362.5,668.5 C 370.167,668.5 377.833,668.5 385.5,668.5C 385.5,697.167 385.5,725.833 385.5,754.5C 377.833,754.5 370.167,754.5 362.5,754.5C 362.5,725.833 362.5,697.167 362.5,668.5 Z"/></g>
<g><path style="opacity:1" fill="#bf2121" d="M 363.5,669.5 C 370.167,669.5 376.833,669.5 383.5,669.5C 383.5,697.5 383.5,725.5 383.5,753.5C 376.833,753.5 370.167,753.5 363.5,753.5C 363.5,725.5 363.5,697.5 363.5,669.5 Z"/></g>
<g><path style="opacity:1" fill="#de948b" d="M 588.5,668.5 C 595.982,667.508 603.648,667.175 611.5,667.5C 611.831,697.005 611.498,726.338 610.5,755.5C 610.5,755.167 610.5,754.833 610.5,754.5C 610.5,725.833 610.5,697.167 610.5,668.5C 603.167,668.5 595.833,668.5 588.5,668.5 Z"/></g>
<g><path style="opacity:1" fill="#fdf5ed" d="M 307.5,715.5 C 312.167,715.5 316.833,715.5 321.5,715.5C 322.53,723.574 319.863,730.074 313.5,735C 305.466,738.953 297.133,739.953 288.5,738C 281.715,731.922 282.048,726.255 289.5,721C 295.519,718.835 301.519,717.001 307.5,715.5 Z"/></g>
<g><path style="opacity:1" fill="#dc8474" d="M 423.5,669.5 C 416.5,669.5 409.5,669.5 402.5,669.5C 402.5,698.167 402.5,726.833 402.5,755.5C 410.167,755.5 417.833,755.5 425.5,755.5C 417.684,756.492 409.684,756.826 401.5,756.5C 401.5,727.167 401.5,697.833 401.5,668.5C 409.019,668.175 416.352,668.508 423.5,669.5 Z"/></g>
<g><path style="opacity:1" fill="#d16257" d="M 781.5,669.5 C 788.648,668.508 795.981,668.175 803.5,668.5C 803.831,696.338 803.498,724.005 802.5,751.5C 802.5,724.167 802.5,696.833 802.5,669.5C 795.5,669.5 788.5,669.5 781.5,669.5 Z"/></g>
<g><path style="opacity:1" fill="#ab0001" d="M 588.5,668.5 C 595.833,668.5 603.167,668.5 610.5,668.5C 610.5,697.167 610.5,725.833 610.5,754.5C 603.167,754.5 595.833,754.5 588.5,754.5C 588.5,725.833 588.5,697.167 588.5,668.5 Z"/></g>
<g><path style="opacity:1" fill="#bf2122" d="M 589.5,669.5 C 596.167,669.5 602.833,669.5 609.5,669.5C 609.5,697.5 609.5,725.5 609.5,753.5C 602.833,753.5 596.167,753.5 589.5,753.5C 589.5,725.5 589.5,697.5 589.5,669.5 Z"/></g>
<g><path style="opacity:1" fill="#f5dece" d="M 133.5,655.5 C 134.498,688.662 134.832,721.996 134.5,755.5C 142.833,755.5 151.167,755.5 159.5,755.5C 151.016,756.493 142.349,756.826 133.5,756.5C 133.5,722.833 133.5,689.167 133.5,655.5 Z"/></g>
<g><path style="opacity:1" fill="#b00202" d="M 706.5,699.5 C 706.5,718.167 706.5,736.833 706.5,755.5C 698.833,755.5 691.167,755.5 683.5,755.5C 683.667,737.83 683.5,720.164 683,702.5C 682.495,700.482 681.995,698.482 681.5,696.5C 681.81,695.262 682.31,695.262 683,696.5C 683.333,697.833 683.667,699.167 684,700.5C 684.5,718.497 684.667,736.497 684.5,754.5C 691.5,754.5 698.5,754.5 705.5,754.5C 705.17,735.992 705.503,717.659 706.5,699.5 Z"/></g>
<g><path style="opacity:1" fill="#bc301e" d="M 572.5,690.5 C 573.105,693.127 573.605,695.793 574,698.5C 574.5,717.497 574.667,736.497 574.5,755.5C 566.5,755.5 558.5,755.5 550.5,755.5C 550.667,737.497 550.5,719.497 550,701.5C 549.495,699.482 548.995,697.482 548.5,695.5C 549.876,695.747 550.71,697.081 551,699.5C 551.5,717.497 551.667,735.497 551.5,753.5C 558.5,753.5 565.5,753.5 572.5,753.5C 572.41,732.309 572.41,711.309 572.5,690.5 Z"/></g>
<g><path style="opacity:1" fill="#bb2116" d="M 648.5,672.5 C 648.662,674.527 648.495,676.527 648,678.5C 647.503,675.854 647.336,673.187 647.5,670.5C 641.5,670.5 635.5,670.5 629.5,670.5C 629.5,698.5 629.5,726.5 629.5,754.5C 636.167,754.5 642.833,754.5 649.5,754.5C 649.333,736.497 649.5,718.497 650,700.5C 650.333,699.5 650.667,698.5 651,697.5C 651.464,698.094 651.631,698.761 651.5,699.5C 650.525,718.454 650.192,737.454 650.5,756.5C 642.833,756.5 635.167,756.5 627.5,756.5C 627.5,727.167 627.5,697.833 627.5,668.5C 634.5,668.5 641.5,668.5 648.5,668.5C 648.5,669.833 648.5,671.167 648.5,672.5 Z"/></g>
<g><path style="opacity:1" fill="#e19285" d="M 362.5,668.5 C 362.5,697.167 362.5,725.833 362.5,754.5C 370.167,754.5 377.833,754.5 385.5,754.5C 377.684,755.492 369.684,755.826 361.5,755.5C 361.169,726.329 361.502,697.329 362.5,668.5 Z"/></g>
</svg>
